<svg xmlns="http://www.w3.org/2000/svg" xmlns:xlink="http://www.w3.org/1999/xlink" width="27.873" height="30.446" viewBox="0 0 27.873 30.446">
  <defs>
    <clipPath id="clip-path">
      <rect id="Retângulo_950" data-name="Retângulo 950" width="27.873" height="30.446" fill="#fff"/>
    </clipPath>
  </defs>
  <g id="Grupo_2857" data-name="Grupo 2857" transform="translate(0 0)">
    <g id="Grupo_2857-2" data-name="Grupo 2857" transform="translate(0 0)" clip-path="url(#clip-path)">
      <path id="Caminho_83271" data-name="Caminho 83271" d="M9.7,17.225a9.056,9.056,0,0,1-4.842-7.9,8.791,8.791,0,0,1,2.6-6.61,9.061,9.061,0,0,1,13.362.459,8.844,8.844,0,0,1,2.141,4.945,9.017,9.017,0,0,1-1,5.272A9.193,9.193,0,0,1,18.12,17.23c.432.166.824.3,1.2.465a13.933,13.933,0,0,1,8.429,10.687c.055.288.076.583.115.874a1.03,1.03,0,0,1-.878,1.176,1.006,1.006,0,0,1-1.175-.906A11.862,11.862,0,0,0,23.249,23.2a11.528,11.528,0,0,0-7.468-4.358A11.573,11.573,0,0,0,5.732,21.992a11.734,11.734,0,0,0-3.583,6.8c-.036.217-.06.437-.079.656a1.031,1.031,0,0,1-1.082.991A1.01,1.01,0,0,1,0,29.3a12.809,12.809,0,0,1,.96-3.927,13.9,13.9,0,0,1,8.482-8.016c.069-.025.138-.047.205-.075.016-.006.026-.03.047-.056M20.937,9.141a7.011,7.011,0,1,0-7.013,7.027,7.047,7.047,0,0,0,7.013-7.027" transform="translate(0 0)" fill="#fff"/>
    </g>
  </g>
</svg>
